# xmcd
#
# Track frame offsets:
#	151
#	14783
#	29428
#	39183
#	53185
#	63969
#	78958
#	89924
#	102540
#	120524
#	134553
#	145330
#	168955
#	184216
#	192505
#	202754
#	215651
#	230210
#	249779
#	261629
#	277548
#	291257
#	302770
#
# Disc length: 4221 seconds
#
# Revision: 1
# Processed by: cddbd v1.5.2PL0 Copyright (c) Steve Scherf et al.
# Submitted via: audiograbber 1.83.01
#
DISCID=5c107b17
DTITLE=Ansambel Zupan - Live
DYEAR=1900
DGENRE=
TTITLE0=Gasilka polka (Feuerwehr Polka)
TTITLE1=Aljazev stolp (Auf unserem höchsten Berg)
TTITLE2=Lepo je biti muzikant (Es ist so schön ein Musikant zu sein)
TTITLE3=Nobena ni lepsa kot moja (Mein Schatz ist schöner als deiner)
TTITLE4=Zalosta deklica (Mein Schatz leb wohl)
TTITLE5=Slovenija odkod lepote tuoje (Slowenien du mein Heimatland)
TTITLE6=Na avtocesti (Auf der Autobahn)
TTITLE7=Cakala bom (Ich wart auf dich)
TTITLE8=Iz Bohinja (Slowenischer Bauerntanz)
TTITLE9=Po trgatui-trio (Slowenischer Wein)
TTITLE10=Otocek sredi jezera (Beim Stelldichein in Oberkrain)
TTITLE11=Pastircek (Das Hirtenlied)
TTITLE12=Proti jutru (Sirenen-Polka)
TTITLE13=Na veselici-trio 
TTITLE14=Zimske u rice-trio
TTITLE15=Za kratec cas-trio (Ich hör so gern Harmonika)
TTITLE16=Prehitro mimo je mladost (Die Jugendzeit geht schnell vorbei)
TTITLE17=Vse moje misli so pri tebi (Ich denke oft an schöne Zeiten)
TTITLE18=Gremo na Pokljuko (Glück im Schwarzwald)
TTITLE19=Pod cuetocimi kostanji (Unter blühenden Kastatnien)
TTITLE20=Pogled u dolino (Großglocknerblick)
TTITLE21=Tam kjer murke cveto
TTITLE22=Sustarska nedelja u Trzicu (Auf dem Flohmarkt)
EXTD=
EXTT0=
EXTT1=
EXTT2=
EXTT3=
EXTT4=
EXTT5=
EXTT6=
EXTT7=
EXTT8=
EXTT9=
EXTT10=
EXTT11=
EXTT12=
EXTT13=
EXTT14=
EXTT15=
EXTT16=
EXTT17=
EXTT18=
EXTT19=
EXTT20=
EXTT21=
EXTT22=
PLAYORDER=
